<?xml version="1.0" encoding="UTF-8"?>
<svg width="182px" height="42px" viewBox="0 0 182 42" version="1.1" xmlns="http://www.w3.org/2000/svg" xmlns:xlink="http://www.w3.org/1999/xlink">
    <title>download copy</title>
    <g id="Page-1" stroke="none" stroke-width="1" fill="none" fill-rule="evenodd">
        <g id="download-copy" fill-rule="nonzero">
            <path d="M38.8700928,16.6355224 C38.8700928,7.43550242 31.4700928,0.0355029175 22.3700928,0.0355029175 C22.3700928,0.0355029175 7.97007279,-1.46449758 4.17007279,15.0355224 L0.0700708854,25.0355224 C-0.229929215,25.9355224 0.470070785,26.8355224 1.47007279,26.8355224 L5.87007279,26.8355224 C5.87007279,27.3355224 4.57007279,27.8355224 4.57007279,28.5355224 L4.57007279,34.4355224 C4.57007279,36.4355224 6.17007279,38.0355224 8.17007279,38.0355224 L13.4700928,38.0355224 C14.5700928,38.0355224 15.3700928,38.9355224 15.3700928,39.9355224 C15.3700928,41.0355224 16.2700928,41.8355224 17.2700928,41.8355224 L30.5700928,41.8355224 C31.6700928,41.8355224 32.4700928,40.9355224 32.4700928,39.9355224 L32.4700928,35.6355224 C32.4700928,33.1355224 33.2700928,30.7355224 34.7700928,28.7355224 C39.4700928,22.3355224 38.8700928,16.6355224 38.8700928,16.6355224 Z" id="Path" fill="#282828"></path>
            <path d="M53.2700928,24.3355224 L44.8700928,18.5355224 C44.0700928,18.0355224 43.0700928,18.6355224 43.0700928,19.6355224 L43.0700928,31.2355224 C43.0700928,32.1355224 44.0700928,32.7355224 44.8700928,32.3355224 L53.2700928,26.5355224 C54.0700928,26.0355224 54.0700928,24.8355224 53.2700928,24.3355224 Z" id="Path" fill="#FFFFFF"></path>
            <path d="M34.8700928,15.7355224 L48.9700928,15.7355224 C49.1700928,15.7355224 49.2700928,15.5355224 49.2700928,15.4355224 L49.2700928,10.8355224 C49.2700928,10.6355224 49.0700928,10.5355224 48.9700928,10.5355224 L34.8700928,10.5355224 C34.6700928,10.5355224 34.5700928,10.7355224 34.5700928,10.8355224 L34.5700928,15.4355224 C34.4700928,15.6355224 34.6700928,15.7355224 34.8700928,15.7355224 Z" id="Path" fill="#FFFFFF"></path>
            <path d="M21.4699928,15.7355224 L31.6699928,15.7355224 C31.8699928,15.7355224 31.9699928,15.5355224 31.9699928,15.4355224 L31.9699928,10.8355224 C31.9699928,10.6355224 31.7699928,10.5355224 31.6699928,10.5355224 L21.4699928,10.5355224 C21.2699928,10.5355224 21.1699928,10.7355224 21.1699928,10.8355224 L21.1699928,15.4355224 C21.0699928,15.6355224 21.2699928,15.7355224 21.4699928,15.7355224 Z" id="Path" fill="#FFFFFF"></path>
            <path d="M39.7699928,26.8355224 L21.4700928,26.8355224 C21.2700928,26.8355224 21.1700928,27.0355224 21.1700928,27.1355224 L21.1700928,31.7355224 C21.1700928,31.9355224 21.3700928,32.0355224 21.4700928,32.0355224 L39.7699928,32.0355224 C39.9699928,32.0355224 40.0699928,31.8355224 40.0699928,31.7355224 L40.0699928,27.1355224 C40.0699928,27.0355224 39.9699928,26.8355224 39.7699928,26.8355224 Z" id="Path" fill="#FFFFFF"></path>
            <path d="M39.8699928,18.6355224 L30.7699928,18.6355224 C30.5699928,18.6355224 30.4699928,18.7355224 30.4699928,18.9355224 L30.4699928,23.6355224 C30.4699928,23.8355224 30.5699928,23.9355224 30.7699928,23.9355224 L39.8699928,23.9355224 C40.0699928,23.9355224 40.1699928,23.8355224 40.1699928,23.6355224 L40.1699928,18.9355224 C40.1699928,18.7355224 39.9699928,18.6355224 39.8699928,18.6355224 Z" id="Path" fill="#FFFFFF"></path>
            <path d="M21.4699928,23.9355224 L27.2699928,23.9355224 C27.4699928,23.9355224 27.5699928,23.7355224 27.5699928,23.6355224 L27.5699928,19.0355224 C27.5699928,18.8355224 27.3699928,18.7355224 27.2699928,18.7355224 L21.4699928,18.7355224 C21.2699928,18.7355224 21.1699928,18.9355224 21.1699928,19.0355224 L21.1699928,23.6355224 C21.0699928,23.8355224 21.2699928,23.9355224 21.4699928,23.9355224 Z" id="Path" fill="#FFFFFF"></path>
            <path d="M101.070093,17.4355224 C99.3700928,17.4355224 97.8700928,17.9355224 96.6700928,19.1355224 L97.5700928,20.7355224 C98.4700928,19.8355224 99.4700928,19.4355224 100.670093,19.4355224 C102.070093,19.4355224 103.070093,20.1355224 103.070093,21.3355224 L103.070093,22.9355224 C102.270093,22.0355224 101.070093,21.6355224 99.6700928,21.6355224 C97.9700928,21.6355224 96.0700928,22.6355224 96.0700928,25.0355224 C96.0700928,27.3355224 97.9700928,28.4355224 99.6700928,28.4355224 C101.070093,28.4355224 102.270093,27.9355224 103.070093,27.0355224 L103.070093,28.1355224 L105.370093,28.1355224 L105.370093,21.2355224 C105.470093,18.4355224 103.370093,17.4355224 101.070093,17.4355224 Z M103.170093,25.7355224 C102.670093,26.4355224 101.670093,26.8355224 100.670093,26.8355224 C99.3700928,26.8355224 98.4700928,26.1355224 98.4700928,24.9355224 C98.4700928,23.8355224 99.3700928,23.0355224 100.670093,23.0355224 C101.670093,23.0355224 102.670093,23.4355224 103.170093,24.1355224 L103.170093,25.7355224 Z" id="Shape" fill="#282828"></path>
            <path d="M112.970093,19.4355224 C113.970093,19.4355224 114.770093,19.8355224 115.370093,20.6355224 L116.870093,19.2355224 C116.170093,18.2355224 114.870093,17.3355224 112.870093,17.3355224 C109.670093,17.3355224 107.470093,19.6355224 107.470093,22.8355224 C107.470093,26.0355224 109.670093,28.3355224 112.870093,28.3355224 C114.870093,28.3355224 116.170093,27.4355224 116.870093,26.4355224 L115.370093,25.0355224 C114.770093,25.8355224 113.970093,26.2355224 112.970093,26.2355224 C111.070093,26.2355224 109.870093,24.8355224 109.870093,22.7355224 C109.870093,20.8355224 111.070093,19.4355224 112.970093,19.4355224 Z" id="Path" fill="#282828"></path>
            <path d="M122.970093,17.4355224 C121.270093,17.4355224 119.770093,17.9355224 118.570093,19.1355224 L119.470093,20.7355224 C120.370093,19.8355224 121.370093,19.4355224 122.570093,19.4355224 C123.970093,19.4355224 124.970093,20.1355224 124.970093,21.3355224 L124.970093,22.9355224 C124.170093,22.0355224 122.970093,21.6355224 121.570093,21.6355224 C119.870093,21.6355224 117.970093,22.6355224 117.970093,25.0355224 C117.970093,27.3355224 119.870093,28.4355224 121.570093,28.4355224 C122.970093,28.4355224 124.170093,27.9355224 124.970093,27.0355224 L124.970093,28.1355224 L127.270093,28.1355224 L127.270093,21.2355224 C127.270093,18.4355224 125.270093,17.4355224 122.970093,17.4355224 Z M124.970093,25.7355224 C124.470093,26.4355224 123.470093,26.8355224 122.470093,26.8355224 C121.170093,26.8355224 120.270093,26.1355224 120.270093,24.9355224 C120.270093,23.8355224 121.170093,23.0355224 122.470093,23.0355224 C123.470093,23.0355224 124.470093,23.4355224 124.970093,24.1355224 L124.970093,25.7355224 Z" id="Shape" fill="#282828"></path>
            <path d="M137.270093,19.1355224 C136.470093,18.0355224 135.270093,17.4355224 133.970093,17.4355224 C131.270093,17.4355224 129.370093,19.5355224 129.370093,22.9355224 C129.370093,26.3355224 131.370093,28.4355224 133.970093,28.4355224 C135.270093,28.4355224 136.470093,27.8355224 137.270093,26.7355224 L137.270093,28.1355224 L139.570093,28.1355224 L139.570093,13.7354724 L137.270093,13.7354724 L137.270093,19.1355224 Z M137.270093,24.9355224 C136.770093,25.7355224 135.670093,26.3355224 134.570093,26.3355224 C132.770093,26.3355224 131.670093,24.9355224 131.670093,22.9355224 C131.670093,20.9355224 132.770093,19.4355224 134.570093,19.4355224 C135.670093,19.4355224 136.770093,20.0355224 137.270093,20.8355224 L137.270093,24.9355224 Z" id="Shape" fill="#282828"></path>
            <path d="M146.870093,17.4355224 C143.770093,17.4355224 141.570093,19.8355224 141.570093,22.9355224 C141.570093,26.2355224 143.870093,28.4355224 147.070093,28.4355224 C148.770093,28.4355224 150.270093,27.9355224 151.270093,26.9355224 L150.270093,25.4355224 C149.570093,26.1355224 148.370093,26.5355224 147.270093,26.5355224 C145.270093,26.5355224 144.170093,25.2355224 143.970093,23.6355224 L151.970093,23.6355224 L151.970093,23.1355224 C152.070093,19.8355224 150.070093,17.4355224 146.870093,17.4355224 Z M143.970093,22.0355224 C144.070093,20.7355224 144.970093,19.2355224 146.870093,19.2355224 C148.870093,19.2355224 149.770093,20.7355224 149.770093,22.0355224 L143.970093,22.0355224 Z" id="Shape" fill="#282828"></path>
            <path d="M166.070093,17.4355224 C164.470093,17.4355224 163.170093,18.4355224 162.570093,19.3355224 C162.270093,18.2355224 161.270093,17.4355224 159.770093,17.4355224 C158.170093,17.4355224 156.770093,18.4355224 156.370093,19.1355224 L156.370093,17.7355224 L154.070093,17.7355224 L154.070093,28.1355224 L156.370093,28.1355224 L156.370093,20.8355224 C156.870093,20.1355224 157.770093,19.4355224 158.770093,19.4355224 C159.970093,19.4355224 160.470093,20.2355224 160.470093,21.3355224 L160.470093,28.1355224 L162.770093,28.1355224 L162.770093,20.8355224 C163.270093,20.1355224 164.170093,19.4355224 165.170093,19.4355224 C166.370093,19.4355224 166.870093,20.2355224 166.870093,21.3355224 L166.870093,28.1355224 L169.170093,28.1355224 L169.170093,20.6355224 C169.070093,18.4355224 167.970093,17.4355224 166.070093,17.4355224 Z" id="Path" fill="#282828"></path>
            <path d="M178.770093,17.6355224 L175.770093,25.4355224 L172.770093,17.6355224 L170.370093,17.6355224 L174.670093,28.1355224 L174.170093,29.3355224 C173.870093,30.0355224 173.370093,30.2355224 172.670093,30.2355224 C172.370093,30.2355224 172.070093,30.1355224 171.770093,30.0355224 L171.470093,32.0355224 C171.770093,32.1355224 172.370093,32.2355224 172.770093,32.2355224 C174.370093,32.2355224 175.670093,31.6355224 176.370093,29.9355224 L181.370093,17.6355224 L178.770093,17.6355224 L178.770093,17.6355224 Z" id="Path" fill="#282828"></path>
            <path d="M69.5699928,19.3355224 C68.7699928,18.1355224 67.4699928,17.4355224 65.9699928,17.4355224 C63.1699928,17.4355224 61.2699928,19.6355224 61.2699928,22.9355224 C61.2699928,26.2355224 63.1699928,28.4355224 65.9699928,28.4355224 C67.5699928,28.4355224 68.8699928,27.6355224 69.5699928,26.5355224 L69.5699928,28.2355224 L70.6699928,28.2355224 L70.6699928,13.7354724 L69.5699928,13.7354724 L69.5699928,19.3355224 Z M69.5699928,25.5355224 C68.9699928,26.5355224 67.5699928,27.4355224 66.1699928,27.4355224 C63.8699928,27.4355224 62.5699928,25.5355224 62.5699928,23.0355224 C62.5699928,20.5355224 63.8699928,18.5355224 66.1699928,18.5355224 C67.6699928,18.5355224 68.9699928,19.4355224 69.5699928,20.4355224 L69.5699928,25.5355224 Z" id="Shape" fill="#282828"></path>
            <path d="M77.8699928,17.4355224 C76.1699928,17.4355224 74.9699928,18.0355224 73.8699928,19.1355224 L74.4699928,19.9355224 C75.3699928,18.8355224 76.4699928,18.4355224 77.7699928,18.4355224 C79.3699928,18.4355224 80.5699928,19.2355224 80.5699928,20.8355224 L80.5699928,22.9355224 C79.6699928,21.9355224 78.4699928,21.4355224 77.0699928,21.4355224 C75.2699928,21.4355224 73.4699928,22.6355224 73.4699928,24.8355224 C73.4699928,27.0355224 75.3699928,28.3355224 77.0699928,28.3355224 C78.4699928,28.3355224 79.6699928,27.8355224 80.5699928,26.8355224 L80.5699928,28.0355224 L81.6699928,28.0355224 L81.6699928,20.7355224 C81.6699928,18.4355224 79.9699928,17.4355224 77.8699928,17.4355224 Z M80.5699928,26.0355224 C79.8699928,26.9355224 78.6699928,27.4355224 77.4699928,27.4355224 C75.7699928,27.4355224 74.6699928,26.3355224 74.6699928,24.8355224 C74.6699928,23.3355224 75.7699928,22.2355224 77.4699928,22.2355224 C78.7699928,22.2355224 79.8699928,22.7355224 80.5699928,23.6355224 L80.5699928,26.0355224 Z" id="Shape" fill="#282828"></path>
            <path d="M92.8700928,27.3355224 C92.1700928,27.3355224 91.7700928,26.7355224 91.7700928,25.9355224 L91.7700928,18.7355224 L93.9700928,18.7355224 L93.9700928,17.7355224 L91.8700928,17.7355224 L91.8700928,14.8354824 L90.7700928,14.8354824 L90.7700928,17.6355224 L89.3700928,17.6355224 L88.9700928,17.6355224 L86.4700928,17.6355224 L86.4700928,16.7354824 C86.4700928,15.3354824 87.0700928,14.4354824 88.2700928,14.4354824 C88.6700928,14.4354824 88.9700928,14.5354824 89.1700928,14.6354824 L89.4700928,13.7354824 C89.0700928,13.5354824 88.5700928,13.4354824 88.0700928,13.4354824 C86.3700928,13.4354824 85.2700928,14.6354824 85.2700928,16.6354824 L85.2700928,17.5355224 L83.5700928,17.5355224 L83.5700928,18.5355224 L85.2700928,18.5355224 L85.2700928,27.9355224 L86.3700928,27.9355224 L86.3700928,18.5355224 L88.9700928,18.5355224 L89.2700928,18.5355224 L90.6700928,18.5355224 L90.6700928,25.9355224 C90.6700928,27.3355224 91.3700928,28.2355224 92.6700928,28.2355224 C93.5700928,28.2355224 94.0700928,27.9355224 94.4700928,27.6355224 L94.0700928,26.7355224 C93.8700928,27.1355224 93.3700928,27.3355224 92.8700928,27.3355224 Z" id="Path" fill="#282828"></path>
            <path d="M101.070093,17.4355224 C99.3700928,17.4355224 97.8700928,17.9355224 96.6700928,19.1355224 L97.5700928,20.7355224 C98.4700928,19.8355224 99.4700928,19.4355224 100.670093,19.4355224 C102.070093,19.4355224 103.070093,20.1355224 103.070093,21.3355224 L103.070093,22.9355224 C102.270093,22.0355224 101.070093,21.6355224 99.6700928,21.6355224 C97.9700928,21.6355224 96.0700928,22.6355224 96.0700928,25.0355224 C96.0700928,27.3355224 97.9700928,28.4355224 99.6700928,28.4355224 C101.070093,28.4355224 102.270093,27.9355224 103.070093,27.0355224 L103.070093,28.1355224 L105.370093,28.1355224 L105.370093,21.2355224 C105.470093,18.4355224 103.370093,17.4355224 101.070093,17.4355224 Z M103.170093,25.7355224 C102.670093,26.4355224 101.670093,26.8355224 100.670093,26.8355224 C99.3700928,26.8355224 98.4700928,26.1355224 98.4700928,24.9355224 C98.4700928,23.8355224 99.3700928,23.0355224 100.670093,23.0355224 C101.670093,23.0355224 102.670093,23.4355224 103.170093,24.1355224 L103.170093,25.7355224 Z" id="Shape" fill="#FFFFFF"></path>
            <path d="M112.970093,19.4355224 C113.970093,19.4355224 114.770093,19.8355224 115.370093,20.6355224 L116.870093,19.2355224 C116.170093,18.2355224 114.870093,17.3355224 112.870093,17.3355224 C109.670093,17.3355224 107.470093,19.6355224 107.470093,22.8355224 C107.470093,26.0355224 109.670093,28.3355224 112.870093,28.3355224 C114.870093,28.3355224 116.170093,27.4355224 116.870093,26.4355224 L115.370093,25.0355224 C114.770093,25.8355224 113.970093,26.2355224 112.970093,26.2355224 C111.070093,26.2355224 109.870093,24.8355224 109.870093,22.7355224 C109.870093,20.8355224 111.070093,19.4355224 112.970093,19.4355224 Z" id="Path" fill="#FFFFFF"></path>
            <path d="M122.970093,17.4355224 C121.270093,17.4355224 119.770093,17.9355224 118.570093,19.1355224 L119.470093,20.7355224 C120.370093,19.8355224 121.370093,19.4355224 122.570093,19.4355224 C123.970093,19.4355224 124.970093,20.1355224 124.970093,21.3355224 L124.970093,22.9355224 C124.170093,22.0355224 122.970093,21.6355224 121.570093,21.6355224 C119.870093,21.6355224 117.970093,22.6355224 117.970093,25.0355224 C117.970093,27.3355224 119.870093,28.4355224 121.570093,28.4355224 C122.970093,28.4355224 124.170093,27.9355224 124.970093,27.0355224 L124.970093,28.1355224 L127.270093,28.1355224 L127.270093,21.2355224 C127.270093,18.4355224 125.270093,17.4355224 122.970093,17.4355224 Z M124.970093,25.7355224 C124.470093,26.4355224 123.470093,26.8355224 122.470093,26.8355224 C121.170093,26.8355224 120.270093,26.1355224 120.270093,24.9355224 C120.270093,23.8355224 121.170093,23.0355224 122.470093,23.0355224 C123.470093,23.0355224 124.470093,23.4355224 124.970093,24.1355224 L124.970093,25.7355224 Z" id="Shape" fill="#FFFFFF"></path>
            <path d="M137.270093,19.1355224 C136.470093,18.0355224 135.270093,17.4355224 133.970093,17.4355224 C131.270093,17.4355224 129.370093,19.5355224 129.370093,22.9355224 C129.370093,26.3355224 131.370093,28.4355224 133.970093,28.4355224 C135.270093,28.4355224 136.470093,27.8355224 137.270093,26.7355224 L137.270093,28.1355224 L139.570093,28.1355224 L139.570093,13.7354724 L137.270093,13.7354724 L137.270093,19.1355224 Z M137.270093,24.9355224 C136.770093,25.7355224 135.670093,26.3355224 134.570093,26.3355224 C132.770093,26.3355224 131.670093,24.9355224 131.670093,22.9355224 C131.670093,20.9355224 132.770093,19.4355224 134.570093,19.4355224 C135.670093,19.4355224 136.770093,20.0355224 137.270093,20.8355224 L137.270093,24.9355224 Z" id="Shape" fill="#FFFFFF"></path>
            <path d="M146.870093,17.4355224 C143.770093,17.4355224 141.570093,19.8355224 141.570093,22.9355224 C141.570093,26.2355224 143.870093,28.4355224 147.070093,28.4355224 C148.770093,28.4355224 150.270093,27.9355224 151.270093,26.9355224 L150.270093,25.4355224 C149.570093,26.1355224 148.370093,26.5355224 147.270093,26.5355224 C145.270093,26.5355224 144.170093,25.2355224 143.970093,23.6355224 L151.970093,23.6355224 L151.970093,23.1355224 C152.070093,19.8355224 150.070093,17.4355224 146.870093,17.4355224 Z M143.970093,22.0355224 C144.070093,20.7355224 144.970093,19.2355224 146.870093,19.2355224 C148.870093,19.2355224 149.770093,20.7355224 149.770093,22.0355224 L143.970093,22.0355224 Z" id="Shape" fill="#FFFFFF"></path>
            <path d="M166.070093,17.4355224 C164.470093,17.4355224 163.170093,18.4355224 162.570093,19.3355224 C162.270093,18.2355224 161.270093,17.4355224 159.770093,17.4355224 C158.170093,17.4355224 156.770093,18.4355224 156.370093,19.1355224 L156.370093,17.7355224 L154.070093,17.7355224 L154.070093,28.1355224 L156.370093,28.1355224 L156.370093,20.8355224 C156.870093,20.1355224 157.770093,19.4355224 158.770093,19.4355224 C159.970093,19.4355224 160.470093,20.2355224 160.470093,21.3355224 L160.470093,28.1355224 L162.770093,28.1355224 L162.770093,20.8355224 C163.270093,20.1355224 164.170093,19.4355224 165.170093,19.4355224 C166.370093,19.4355224 166.870093,20.2355224 166.870093,21.3355224 L166.870093,28.1355224 L169.170093,28.1355224 L169.170093,20.6355224 C169.070093,18.4355224 167.970093,17.4355224 166.070093,17.4355224 Z" id="Path" fill="#FFFFFF"></path>
            <path d="M178.770093,17.6355224 L175.770093,25.4355224 L172.770093,17.6355224 L170.370093,17.6355224 L174.670093,28.1355224 L174.170093,29.3355224 C173.870093,30.0355224 173.370093,30.2355224 172.670093,30.2355224 C172.370093,30.2355224 172.070093,30.1355224 171.770093,30.0355224 L171.470093,32.0355224 C171.770093,32.1355224 172.370093,32.2355224 172.770093,32.2355224 C174.370093,32.2355224 175.670093,31.6355224 176.370093,29.9355224 L181.370093,17.6355224 L178.770093,17.6355224 L178.770093,17.6355224 Z" id="Path" fill="#FFFFFF"></path>
            <path d="M69.5699928,19.3355224 C68.7699928,18.1355224 67.4699928,17.4355224 65.9699928,17.4355224 C63.1699928,17.4355224 61.2699928,19.6355224 61.2699928,22.9355224 C61.2699928,26.2355224 63.1699928,28.4355224 65.9699928,28.4355224 C67.5699928,28.4355224 68.8699928,27.6355224 69.5699928,26.5355224 L69.5699928,28.2355224 L70.6699928,28.2355224 L70.6699928,13.7354724 L69.5699928,13.7354724 L69.5699928,19.3355224 Z M69.5699928,25.5355224 C68.9699928,26.5355224 67.5699928,27.4355224 66.1699928,27.4355224 C63.8699928,27.4355224 62.5699928,25.5355224 62.5699928,23.0355224 C62.5699928,20.5355224 63.8699928,18.5355224 66.1699928,18.5355224 C67.6699928,18.5355224 68.9699928,19.4355224 69.5699928,20.4355224 L69.5699928,25.5355224 Z" id="Shape" fill="#FFFFFF"></path>
            <path d="M77.8699928,17.4355224 C76.1699928,17.4355224 74.9699928,18.0355224 73.8699928,19.1355224 L74.4699928,19.9355224 C75.3699928,18.8355224 76.4699928,18.4355224 77.7699928,18.4355224 C79.3699928,18.4355224 80.5699928,19.2355224 80.5699928,20.8355224 L80.5699928,22.9355224 C79.6699928,21.9355224 78.4699928,21.4355224 77.0699928,21.4355224 C75.2699928,21.4355224 73.4699928,22.6355224 73.4699928,24.8355224 C73.4699928,27.0355224 75.3699928,28.3355224 77.0699928,28.3355224 C78.4699928,28.3355224 79.6699928,27.8355224 80.5699928,26.8355224 L80.5699928,28.0355224 L81.6699928,28.0355224 L81.6699928,20.7355224 C81.6699928,18.4355224 79.9699928,17.4355224 77.8699928,17.4355224 Z M80.5699928,26.0355224 C79.8699928,26.9355224 78.6699928,27.4355224 77.4699928,27.4355224 C75.7699928,27.4355224 74.6699928,26.3355224 74.6699928,24.8355224 C74.6699928,23.3355224 75.7699928,22.2355224 77.4699928,22.2355224 C78.7699928,22.2355224 79.8699928,22.7355224 80.5699928,23.6355224 L80.5699928,26.0355224 Z" id="Shape" fill="#FFFFFF"></path>
            <path d="M92.8700928,27.3355224 C92.1700928,27.3355224 91.7700928,26.7355224 91.7700928,25.9355224 L91.7700928,18.7355224 L93.9700928,18.7355224 L93.9700928,17.7355224 L91.8700928,17.7355224 L91.8700928,14.8354824 L90.7700928,14.8354824 L90.7700928,17.6355224 L89.3700928,17.6355224 L88.9700928,17.6355224 L86.4700928,17.6355224 L86.4700928,16.7354824 C86.4700928,15.3354824 87.0700928,14.4354824 88.2700928,14.4354824 C88.6700928,14.4354824 88.9700928,14.5354824 89.1700928,14.6354824 L89.4700928,13.7354824 C89.0700928,13.5354824 88.5700928,13.4354824 88.0700928,13.4354824 C86.3700928,13.4354824 85.2700928,14.6354824 85.2700928,16.6354824 L85.2700928,17.5355224 L83.5700928,17.5355224 L83.5700928,18.5355224 L85.2700928,18.5355224 L85.2700928,27.9355224 L86.3700928,27.9355224 L86.3700928,18.5355224 L88.9700928,18.5355224 L89.2700928,18.5355224 L90.6700928,18.5355224 L90.6700928,25.9355224 C90.6700928,27.3355224 91.3700928,28.2355224 92.6700928,28.2355224 C93.5700928,28.2355224 94.0700928,27.9355224 94.4700928,27.6355224 L94.0700928,26.7355224 C93.8700928,27.1355224 93.3700928,27.3355224 92.8700928,27.3355224 Z" id="Path" fill="#FFFFFF"></path>
            <path d="M38.8700928,16.6355224 C38.8700928,7.43550242 31.4700928,0.0355029175 22.3700928,0.0355029175 C22.3700928,0.0355029175 7.97007279,-1.46449758 4.17007279,15.0355224 L0.0700708854,25.0355224 C-0.229929215,25.9355224 0.470070785,26.8355224 1.47007279,26.8355224 L5.87007279,26.8355224 C5.87007279,27.3355224 4.57007279,27.8355224 4.57007279,28.5355224 L4.57007279,34.4355224 C4.57007279,36.4355224 6.17007279,38.0355224 8.17007279,38.0355224 L13.4700928,38.0355224 C14.5700928,38.0355224 15.3700928,38.9355224 15.3700928,39.9355224 C15.3700928,41.0355224 16.2700928,41.8355224 17.2700928,41.8355224 L30.5700928,41.8355224 C31.6700928,41.8355224 32.4700928,40.9355224 32.4700928,39.9355224 L32.4700928,35.6355224 C32.4700928,33.1355224 33.2700928,30.7355224 34.7700928,28.7355224 C39.4700928,22.3355224 38.8700928,16.6355224 38.8700928,16.6355224 Z" id="Path" fill="#FFFFFF"></path>
            <path d="M53.2699928,26.4355224 L44.8699928,32.2355224 C44.0699928,32.7355224 43.0699928,32.1355224 43.0699928,31.1355224 L43.0699928,19.6355224 C43.0699928,18.7355224 44.0699928,18.1355224 44.8699928,18.5355224 L53.2699928,24.3355224 C54.0699928,24.8355224 54.0699928,26.0355224 53.2699928,26.4355224 Z M34.8699928,15.7355224 L48.9699928,15.7355224 C49.1699928,15.7355224 49.2699928,15.5355224 49.2699928,15.4355224 L49.2699928,10.8355224 C49.2699928,10.6355224 49.0699928,10.5355224 48.9699928,10.5355224 L34.8699928,10.5355224 C34.6699928,10.5355224 34.5699928,10.7355224 34.5699928,10.8355224 L34.5699928,15.4355224 C34.4699928,15.6355224 34.6699928,15.7355224 34.8699928,15.7355224 Z M21.4699928,15.7355224 L31.6699928,15.7355224 C31.8699928,15.7355224 31.9699928,15.5355224 31.9699928,15.4355224 L31.9699928,10.8355224 C31.9699928,10.6355224 31.7699928,10.5355224 31.6699928,10.5355224 L21.4699928,10.5355224 C21.2699928,10.5355224 21.1699928,10.7355224 21.1699928,10.8355224 L21.1699928,15.4355224 C21.0699928,15.6355224 21.2699928,15.7355224 21.4699928,15.7355224 Z M39.7699928,26.8355224 L21.4699928,26.8355224 C21.2699928,26.8355224 21.1699928,27.0355224 21.1699928,27.1355224 L21.1699928,31.7355224 C21.1699928,31.9355224 21.3699928,32.0355224 21.4699928,32.0355224 L39.7699928,32.0355224 C39.9699928,32.0355224 40.0699928,31.8355224 40.0699928,31.7355224 L40.0699928,27.1355224 C40.0699928,27.0355224 39.9699928,26.8355224 39.7699928,26.8355224 Z M39.8699928,18.6355224 L30.7699928,18.6355224 C30.5699928,18.6355224 30.4699928,18.7355224 30.4699928,18.9355224 L30.4699928,23.6355224 C30.4699928,23.8355224 30.5699928,23.9355224 30.7699928,23.9355224 L39.8699928,23.9355224 C40.0699928,23.9355224 40.1699928,23.8355224 40.1699928,23.6355224 L40.1699928,18.9355224 C40.1699928,18.7355224 39.9699928,18.6355224 39.8699928,18.6355224 Z M21.4699928,23.9355224 L27.2699928,23.9355224 C27.4699928,23.9355224 27.5699928,23.7355224 27.5699928,23.6355224 L27.5699928,19.0355224 C27.5699928,18.8355224 27.3699928,18.7355224 27.2699928,18.7355224 L21.4699928,18.7355224 C21.2699928,18.7355224 21.1699928,18.9355224 21.1699928,19.0355224 L21.1699928,23.6355224 C21.0699928,23.8355224 21.2699928,23.9355224 21.4699928,23.9355224 Z" id="Shape" fill="#21D260"></path>
        </g>
    </g>
</svg>